<svg xmlns="http://www.w3.org/2000/svg" viewBox="0 0 24 24">
  <path fill="#ffffff"
    d="M12 .297c-6.63 0-12 5.373-12 12 0 5.303 3.438 9.8 8.205 11.387.6.111.82-.261.82-.577 0-.285-.01-1.04-.015-2.042-3.338.726-4.043-1.612-4.043-1.612-.546-1.386-1.332-1.757-1.332-1.757-1.089-.744.083-.729.083-.729 1.206.085 1.84 1.236 1.84 1.236 1.07 1.835 2.807 1.305 3.492.997.108-.776.418-1.305.762-1.604-2.665-.305-5.467-1.333-5.467-5.932 0-1.31.467-2.381 1.236-3.221-.124-.303-.535-1.524.117-3.176 0 0 1.007-.322 3.301 1.23a11.52 11.52 0 0 1 3.003-.404c1.02.005 2.048.138 3.005.404 2.292-1.552 3.298-1.23 3.298-1.23.653 1.652.242 2.873.119 3.176.77.84 1.231 1.911 1.231 3.221 0 4.61-2.807 5.625-5.479 5.921.43.372.823 1.102.823 2.222 0 1.606-.014 2.898-.014 3.293 0 .319.218.694.825.576C20.565 22.092 24 17.592 24 12.297c0-6.627-5.373-12-12-12" />
</svg>
